<?xml version="1.0" encoding="UTF-8" standalone="no"?>
<!DOCTYPE svg PUBLIC "-//W3C//DTD SVG 1.1//EN"
 "http://www.w3.org/Graphics/SVG/1.1/DTD/svg11.dtd">
<!-- Generated by graphviz version 2.47.3 (20210619.1520)
 -->
<!-- Title: dependencies Pages: 1 -->
<svg width="1695pt" height="247pt"
 viewBox="0.00 0.00 1695.00 246.80" xmlns="http://www.w3.org/2000/svg" xmlns:xlink="http://www.w3.org/1999/xlink">
<g id="graph0" class="graph" transform="scale(1 1) rotate(0) translate(4 242.8)">
<title>dependencies</title>
<polygon fill="white" stroke="transparent" points="-4,4 -4,-242.8 1691,-242.8 1691,4 -4,4"/>
<text text-anchor="middle" x="843.5" y="-8.2" font-family="sans-serif" font-size="14.00">dependencies</text>
<g id="clust7" class="cluster">
<title>cluster_AppModule</title>
<polygon fill="none" stroke="black" stroke-dasharray="1,5" points="8,-32.8 8,-230.8 1679,-230.8 1679,-32.8 8,-32.8"/>
</g>
<g id="clust8" class="cluster">
<title>cluster_AppModule_declarations</title>
<polygon fill="none" stroke="black" points="383,-40.8 383,-92.8 1671,-92.8 1671,-40.8 383,-40.8"/>
</g>
<g id="clust18" class="cluster">
<title>cluster_AppModule_imports</title>
<polygon fill="none" stroke="black" points="16,-40.8 16,-92.8 375,-92.8 375,-40.8 16,-40.8"/>
</g>
<g id="clust20" class="cluster">
<title>cluster_AppModule_bootstrap</title>
<polygon fill="none" stroke="black" points="837,-170.8 837,-222.8 961,-222.8 961,-170.8 837,-170.8"/>
</g>
<!-- AddHotelComponent -->
<g id="node1" class="node">
<title>AddHotelComponent</title>
<polygon fill="#ffffb3" stroke="black" points="1663.04,-84.8 1526.96,-84.8 1526.96,-48.8 1663.04,-48.8 1663.04,-84.8"/>
<text text-anchor="middle" x="1595" y="-62.6" font-family="Times,serif" font-size="14.00">AddHotelComponent</text>
</g>
<!-- AppModule -->
<g id="node10" class="node">
<title>AppModule</title>
<polygon fill="#8dd3c7" stroke="black" points="940.66,-149.8 937.66,-153.8 916.66,-153.8 913.66,-149.8 857.34,-149.8 857.34,-113.8 940.66,-113.8 940.66,-149.8"/>
<text text-anchor="middle" x="899" y="-127.6" font-family="Times,serif" font-size="14.00">AppModule</text>
</g>
<!-- AddHotelComponent&#45;&gt;AppModule -->
<g id="edge1" class="edge">
<title>AddHotelComponent&#45;&gt;AppModule</title>
<path fill="none" stroke="black" d="M1595,-85.05C1595,-107.82 1595,-143.8 1595,-143.8 1595,-143.8 950.71,-143.8 950.71,-143.8"/>
<polygon fill="black" stroke="black" points="950.71,-140.3 940.71,-143.8 950.71,-147.3 950.71,-140.3"/>
</g>
<!-- AppComponent -->
<g id="node2" class="node">
<title>AppComponent</title>
<polygon fill="#ffffb3" stroke="black" points="1508.94,-84.8 1403.06,-84.8 1403.06,-48.8 1508.94,-48.8 1508.94,-84.8"/>
<text text-anchor="middle" x="1456" y="-62.6" font-family="Times,serif" font-size="14.00">AppComponent</text>
</g>
<!-- AppComponent&#45;&gt;AppModule -->
<g id="edge2" class="edge">
<title>AppComponent&#45;&gt;AppModule</title>
<path fill="none" stroke="black" d="M1456,-85.08C1456,-106.12 1456,-137.8 1456,-137.8 1456,-137.8 950.87,-137.8 950.87,-137.8"/>
<polygon fill="black" stroke="black" points="950.87,-134.3 940.87,-137.8 950.87,-141.3 950.87,-134.3"/>
</g>
<!-- FooterComponent -->
<g id="node3" class="node">
<title>FooterComponent</title>
<polygon fill="#ffffb3" stroke="black" points="1384.88,-84.8 1267.12,-84.8 1267.12,-48.8 1384.88,-48.8 1384.88,-84.8"/>
<text text-anchor="middle" x="1326" y="-62.6" font-family="Times,serif" font-size="14.00">FooterComponent</text>
</g>
<!-- FooterComponent&#45;&gt;AppModule -->
<g id="edge3" class="edge">
<title>FooterComponent&#45;&gt;AppModule</title>
<path fill="none" stroke="black" d="M1326,-84.91C1326,-104.14 1326,-131.8 1326,-131.8 1326,-131.8 950.72,-131.8 950.72,-131.8"/>
<polygon fill="black" stroke="black" points="950.72,-128.3 940.72,-131.8 950.72,-135.3 950.72,-128.3"/>
</g>
<!-- HeaderComponent -->
<g id="node4" class="node">
<title>HeaderComponent</title>
<polygon fill="#ffffb3" stroke="black" points="1248.74,-84.8 1127.26,-84.8 1127.26,-48.8 1248.74,-48.8 1248.74,-84.8"/>
<text text-anchor="middle" x="1188" y="-62.6" font-family="Times,serif" font-size="14.00">HeaderComponent</text>
</g>
<!-- HeaderComponent&#45;&gt;AppModule -->
<g id="edge4" class="edge">
<title>HeaderComponent&#45;&gt;AppModule</title>
<path fill="none" stroke="black" d="M1188,-84.82C1188,-102.17 1188,-125.8 1188,-125.8 1188,-125.8 950.71,-125.8 950.71,-125.8"/>
<polygon fill="black" stroke="black" points="950.71,-122.3 940.71,-125.8 950.71,-129.3 950.71,-122.3"/>
</g>
<!-- HomeComponent -->
<g id="node5" class="node">
<title>HomeComponent</title>
<polygon fill="#ffffb3" stroke="black" points="1108.55,-84.8 993.45,-84.8 993.45,-48.8 1108.55,-48.8 1108.55,-84.8"/>
<text text-anchor="middle" x="1051" y="-62.6" font-family="Times,serif" font-size="14.00">HomeComponent</text>
</g>
<!-- HomeComponent&#45;&gt;AppModule -->
<g id="edge5" class="edge">
<title>HomeComponent&#45;&gt;AppModule</title>
<path fill="none" stroke="black" d="M1051,-85.04C1051,-100.37 1051,-119.8 1051,-119.8 1051,-119.8 950.94,-119.8 950.94,-119.8"/>
<polygon fill="black" stroke="black" points="950.94,-116.3 940.94,-119.8 950.94,-123.3 950.94,-116.3"/>
</g>
<!-- HotelDetailsComponent -->
<g id="node6" class="node">
<title>HotelDetailsComponent</title>
<polygon fill="#ffffb3" stroke="black" points="975.09,-84.8 822.91,-84.8 822.91,-48.8 975.09,-48.8 975.09,-84.8"/>
<text text-anchor="middle" x="899" y="-62.6" font-family="Times,serif" font-size="14.00">HotelDetailsComponent</text>
</g>
<!-- HotelDetailsComponent&#45;&gt;AppModule -->
<g id="edge6" class="edge">
<title>HotelDetailsComponent&#45;&gt;AppModule</title>
<path fill="none" stroke="black" d="M899,-84.91C899,-84.91 899,-103.79 899,-103.79"/>
<polygon fill="black" stroke="black" points="895.5,-103.79 899,-113.79 902.5,-103.79 895.5,-103.79"/>
</g>
<!-- HotelListComponent -->
<g id="node7" class="node">
<title>HotelListComponent</title>
<polygon fill="#ffffb3" stroke="black" points="805.21,-84.8 670.79,-84.8 670.79,-48.8 805.21,-48.8 805.21,-84.8"/>
<text text-anchor="middle" x="738" y="-62.6" font-family="Times,serif" font-size="14.00">HotelListComponent</text>
</g>
<!-- HotelListComponent&#45;&gt;AppModule -->
<g id="edge7" class="edge">
<title>HotelListComponent&#45;&gt;AppModule</title>
<path fill="none" stroke="black" d="M738,-85.04C738,-100.37 738,-119.8 738,-119.8 738,-119.8 847.12,-119.8 847.12,-119.8"/>
<polygon fill="black" stroke="black" points="847.12,-123.3 857.12,-119.8 847.12,-116.3 847.12,-123.3"/>
</g>
<!-- LogInComponent -->
<g id="node8" class="node">
<title>LogInComponent</title>
<polygon fill="#ffffb3" stroke="black" points="652.55,-84.8 537.45,-84.8 537.45,-48.8 652.55,-48.8 652.55,-84.8"/>
<text text-anchor="middle" x="595" y="-62.6" font-family="Times,serif" font-size="14.00">LogInComponent</text>
</g>
<!-- LogInComponent&#45;&gt;AppModule -->
<g id="edge8" class="edge">
<title>LogInComponent&#45;&gt;AppModule</title>
<path fill="none" stroke="black" d="M595,-84.82C595,-102.17 595,-125.8 595,-125.8 595,-125.8 847.05,-125.8 847.05,-125.8"/>
<polygon fill="black" stroke="black" points="847.05,-129.3 857.05,-125.8 847.05,-122.3 847.05,-129.3"/>
</g>
<!-- RegisterComponent -->
<g id="node9" class="node">
<title>RegisterComponent</title>
<polygon fill="#ffffb3" stroke="black" points="518.98,-84.8 391.02,-84.8 391.02,-48.8 518.98,-48.8 518.98,-84.8"/>
<text text-anchor="middle" x="455" y="-62.6" font-family="Times,serif" font-size="14.00">RegisterComponent</text>
</g>
<!-- RegisterComponent&#45;&gt;AppModule -->
<g id="edge9" class="edge">
<title>RegisterComponent&#45;&gt;AppModule</title>
<path fill="none" stroke="black" d="M455,-84.91C455,-104.14 455,-131.8 455,-131.8 455,-131.8 847.23,-131.8 847.23,-131.8"/>
<polygon fill="black" stroke="black" points="847.23,-135.3 857.23,-131.8 847.23,-128.3 847.23,-135.3"/>
</g>
<!-- AppComponent  -->
<g id="node13" class="node">
<title>AppComponent </title>
<polygon fill="#80b1d3" stroke="black" points="953.44,-214.8 844.56,-214.8 844.56,-178.8 953.44,-178.8 953.44,-214.8"/>
<text text-anchor="middle" x="899" y="-192.6" font-family="Times,serif" font-size="14.00">AppComponent </text>
</g>
<!-- AppModule&#45;&gt;AppComponent  -->
<g id="edge12" class="edge">
<title>AppModule&#45;&gt;AppComponent </title>
<path fill="none" stroke="black" stroke-dasharray="1,5" d="M899,-149.91C899,-149.91 899,-168.79 899,-168.79"/>
<polygon fill="black" stroke="black" points="895.5,-168.79 899,-178.79 902.5,-168.79 895.5,-168.79"/>
</g>
<!-- AngularMaterialImportsModule -->
<g id="node11" class="node">
<title>AngularMaterialImportsModule</title>
<polygon fill="#8dd3c7" stroke="black" points="367.39,-84.8 364.39,-88.8 343.39,-88.8 340.39,-84.8 170.61,-84.8 170.61,-48.8 367.39,-48.8 367.39,-84.8"/>
<text text-anchor="middle" x="269" y="-62.6" font-family="Times,serif" font-size="14.00">AngularMaterialImportsModule</text>
</g>
<!-- AngularMaterialImportsModule&#45;&gt;AppModule -->
<g id="edge10" class="edge">
<title>AngularMaterialImportsModule&#45;&gt;AppModule</title>
<path fill="none" stroke="black" d="M269,-85.08C269,-106.12 269,-137.8 269,-137.8 269,-137.8 847.18,-137.8 847.18,-137.8"/>
<polygon fill="black" stroke="black" points="847.18,-141.3 857.18,-137.8 847.18,-134.3 847.18,-141.3"/>
</g>
<!-- AppRoutingModule -->
<g id="node12" class="node">
<title>AppRoutingModule</title>
<polygon fill="#8dd3c7" stroke="black" points="152.27,-84.8 149.27,-88.8 128.27,-88.8 125.27,-84.8 23.73,-84.8 23.73,-48.8 152.27,-48.8 152.27,-84.8"/>
<text text-anchor="middle" x="88" y="-62.6" font-family="Times,serif" font-size="14.00">AppRoutingModule</text>
</g>
<!-- AppRoutingModule&#45;&gt;AppModule -->
<g id="edge11" class="edge">
<title>AppRoutingModule&#45;&gt;AppModule</title>
<path fill="none" stroke="black" d="M88,-85.05C88,-107.82 88,-143.8 88,-143.8 88,-143.8 847.1,-143.8 847.1,-143.8"/>
<polygon fill="black" stroke="black" points="847.1,-147.3 857.1,-143.8 847.1,-140.3 847.1,-147.3"/>
</g>
</g>
</svg>
