<?xml version="1.0" encoding="UTF-8" standalone="no"?>
<!DOCTYPE svg PUBLIC "-//W3C//DTD SVG 1.1//EN"
 "http://www.w3.org/Graphics/SVG/1.1/DTD/svg11.dtd">
<!-- Generated by graphviz version 2.47.3 (20210619.1520)
 -->
<!-- Title: dependencies Pages: 1 -->
<svg width="1695pt" height="247pt"
 viewBox="0.00 0.00 1695.00 246.80" xmlns="http://www.w3.org/2000/svg" xmlns:xlink="http://www.w3.org/1999/xlink">
<g id="graph0" class="graph" transform="scale(1 1) rotate(0) translate(4 242.8)">
<title>dependencies</title>
<polygon fill="white" stroke="transparent" points="-4,4 -4,-242.8 1691,-242.8 1691,4 -4,4"/>
<text text-anchor="middle" x="843.5" y="-8.2" font-family="sans-serif" font-size="14.00">dependencies</text>
<g id="clust1" class="cluster">
<title>cluster_AppModule</title>
<polygon fill="none" stroke="black" stroke-dasharray="1,5" points="8,-32.8 8,-230.8 1679,-230.8 1679,-32.8 8,-32.8"/>
</g>
<g id="clust14" class="cluster">
<title>cluster_AppModule_bootstrap</title>
<polygon fill="none" stroke="black" points="759,-170.8 759,-222.8 883,-222.8 883,-170.8 759,-170.8"/>
</g>
<g id="clust12" class="cluster">
<title>cluster_AppModule_imports</title>
<polygon fill="none" stroke="black" points="1312,-40.8 1312,-92.8 1671,-92.8 1671,-40.8 1312,-40.8"/>
</g>
<g id="clust2" class="cluster">
<title>cluster_AppModule_declarations</title>
<polygon fill="none" stroke="black" points="16,-40.8 16,-92.8 1304,-92.8 1304,-40.8 16,-40.8"/>
</g>
<!-- AddHotelComponent -->
<g id="node1" class="node">
<title>AddHotelComponent</title>
<polygon fill="#ffffb3" stroke="black" points="1296.04,-84.8 1159.96,-84.8 1159.96,-48.8 1296.04,-48.8 1296.04,-84.8"/>
<text text-anchor="middle" x="1228" y="-62.6" font-family="Times,serif" font-size="14.00">AddHotelComponent</text>
</g>
<!-- AppModule -->
<g id="node10" class="node">
<title>AppModule</title>
<polygon fill="#8dd3c7" stroke="black" points="862.66,-149.8 859.66,-153.8 838.66,-153.8 835.66,-149.8 779.34,-149.8 779.34,-113.8 862.66,-113.8 862.66,-149.8"/>
<text text-anchor="middle" x="821" y="-127.6" font-family="Times,serif" font-size="14.00">AppModule</text>
</g>
<!-- AddHotelComponent&#45;&gt;AppModule -->
<g id="edge1" class="edge">
<title>AddHotelComponent&#45;&gt;AppModule</title>
<path fill="none" stroke="black" d="M1228,-84.91C1228,-104.14 1228,-131.8 1228,-131.8 1228,-131.8 873.02,-131.8 873.02,-131.8"/>
<polygon fill="black" stroke="black" points="873.02,-128.3 863.02,-131.8 873.02,-135.3 873.02,-128.3"/>
</g>
<!-- AppComponent -->
<g id="node2" class="node">
<title>AppComponent</title>
<polygon fill="#ffffb3" stroke="black" points="1141.94,-84.8 1036.06,-84.8 1036.06,-48.8 1141.94,-48.8 1141.94,-84.8"/>
<text text-anchor="middle" x="1089" y="-62.6" font-family="Times,serif" font-size="14.00">AppComponent</text>
</g>
<!-- AppComponent&#45;&gt;AppModule -->
<g id="edge2" class="edge">
<title>AppComponent&#45;&gt;AppModule</title>
<path fill="none" stroke="black" d="M1089,-84.82C1089,-102.17 1089,-125.8 1089,-125.8 1089,-125.8 872.88,-125.8 872.88,-125.8"/>
<polygon fill="black" stroke="black" points="872.88,-122.3 862.88,-125.8 872.87,-129.3 872.88,-122.3"/>
</g>
<!-- FooterComponent -->
<g id="node3" class="node">
<title>FooterComponent</title>
<polygon fill="#ffffb3" stroke="black" points="1017.88,-84.8 900.12,-84.8 900.12,-48.8 1017.88,-48.8 1017.88,-84.8"/>
<text text-anchor="middle" x="959" y="-62.6" font-family="Times,serif" font-size="14.00">FooterComponent</text>
</g>
<!-- FooterComponent&#45;&gt;AppModule -->
<g id="edge3" class="edge">
<title>FooterComponent&#45;&gt;AppModule</title>
<path fill="none" stroke="black" d="M959,-85.04C959,-100.37 959,-119.8 959,-119.8 959,-119.8 872.78,-119.8 872.78,-119.8"/>
<polygon fill="black" stroke="black" points="872.78,-116.3 862.78,-119.8 872.78,-123.3 872.78,-116.3"/>
</g>
<!-- HeaderComponent -->
<g id="node4" class="node">
<title>HeaderComponent</title>
<polygon fill="#ffffb3" stroke="black" points="881.74,-84.8 760.26,-84.8 760.26,-48.8 881.74,-48.8 881.74,-84.8"/>
<text text-anchor="middle" x="821" y="-62.6" font-family="Times,serif" font-size="14.00">HeaderComponent</text>
</g>
<!-- HeaderComponent&#45;&gt;AppModule -->
<g id="edge4" class="edge">
<title>HeaderComponent&#45;&gt;AppModule</title>
<path fill="none" stroke="black" d="M821,-84.91C821,-84.91 821,-103.79 821,-103.79"/>
<polygon fill="black" stroke="black" points="817.5,-103.79 821,-113.79 824.5,-103.79 817.5,-103.79"/>
</g>
<!-- HomeComponent -->
<g id="node5" class="node">
<title>HomeComponent</title>
<polygon fill="#ffffb3" stroke="black" points="741.55,-84.8 626.45,-84.8 626.45,-48.8 741.55,-48.8 741.55,-84.8"/>
<text text-anchor="middle" x="684" y="-62.6" font-family="Times,serif" font-size="14.00">HomeComponent</text>
</g>
<!-- HomeComponent&#45;&gt;AppModule -->
<g id="edge5" class="edge">
<title>HomeComponent&#45;&gt;AppModule</title>
<path fill="none" stroke="black" d="M684,-85.04C684,-100.37 684,-119.8 684,-119.8 684,-119.8 769.15,-119.8 769.15,-119.8"/>
<polygon fill="black" stroke="black" points="769.15,-123.3 779.15,-119.8 769.15,-116.3 769.15,-123.3"/>
</g>
<!-- HotelDetailsComponent -->
<g id="node6" class="node">
<title>HotelDetailsComponent</title>
<polygon fill="#ffffb3" stroke="black" points="608.09,-84.8 455.91,-84.8 455.91,-48.8 608.09,-48.8 608.09,-84.8"/>
<text text-anchor="middle" x="532" y="-62.6" font-family="Times,serif" font-size="14.00">HotelDetailsComponent</text>
</g>
<!-- HotelDetailsComponent&#45;&gt;AppModule -->
<g id="edge6" class="edge">
<title>HotelDetailsComponent&#45;&gt;AppModule</title>
<path fill="none" stroke="black" d="M532,-84.82C532,-102.17 532,-125.8 532,-125.8 532,-125.8 769.29,-125.8 769.29,-125.8"/>
<polygon fill="black" stroke="black" points="769.29,-129.3 779.29,-125.8 769.29,-122.3 769.29,-129.3"/>
</g>
<!-- HotelListComponent -->
<g id="node7" class="node">
<title>HotelListComponent</title>
<polygon fill="#ffffb3" stroke="black" points="438.21,-84.8 303.79,-84.8 303.79,-48.8 438.21,-48.8 438.21,-84.8"/>
<text text-anchor="middle" x="371" y="-62.6" font-family="Times,serif" font-size="14.00">HotelListComponent</text>
</g>
<!-- HotelListComponent&#45;&gt;AppModule -->
<g id="edge7" class="edge">
<title>HotelListComponent&#45;&gt;AppModule</title>
<path fill="none" stroke="black" d="M371,-84.91C371,-104.14 371,-131.8 371,-131.8 371,-131.8 769.07,-131.8 769.07,-131.8"/>
<polygon fill="black" stroke="black" points="769.07,-135.3 779.07,-131.8 769.07,-128.3 769.07,-135.3"/>
</g>
<!-- LogInComponent -->
<g id="node8" class="node">
<title>LogInComponent</title>
<polygon fill="#ffffb3" stroke="black" points="285.55,-84.8 170.45,-84.8 170.45,-48.8 285.55,-48.8 285.55,-84.8"/>
<text text-anchor="middle" x="228" y="-62.6" font-family="Times,serif" font-size="14.00">LogInComponent</text>
</g>
<!-- LogInComponent&#45;&gt;AppModule -->
<g id="edge8" class="edge">
<title>LogInComponent&#45;&gt;AppModule</title>
<path fill="none" stroke="black" d="M228,-85.08C228,-106.12 228,-137.8 228,-137.8 228,-137.8 769.3,-137.8 769.3,-137.8"/>
<polygon fill="black" stroke="black" points="769.3,-141.3 779.3,-137.8 769.3,-134.3 769.3,-141.3"/>
</g>
<!-- RegisterComponent -->
<g id="node9" class="node">
<title>RegisterComponent</title>
<polygon fill="#ffffb3" stroke="black" points="151.98,-84.8 24.02,-84.8 24.02,-48.8 151.98,-48.8 151.98,-84.8"/>
<text text-anchor="middle" x="88" y="-62.6" font-family="Times,serif" font-size="14.00">RegisterComponent</text>
</g>
<!-- RegisterComponent&#45;&gt;AppModule -->
<g id="edge9" class="edge">
<title>RegisterComponent&#45;&gt;AppModule</title>
<path fill="none" stroke="black" d="M88,-85.05C88,-107.82 88,-143.8 88,-143.8 88,-143.8 769.22,-143.8 769.22,-143.8"/>
<polygon fill="black" stroke="black" points="769.22,-147.3 779.22,-143.8 769.22,-140.3 769.22,-147.3"/>
</g>
<!-- AppComponent  -->
<g id="node13" class="node">
<title>AppComponent </title>
<polygon fill="#80b1d3" stroke="black" points="875.44,-214.8 766.56,-214.8 766.56,-178.8 875.44,-178.8 875.44,-214.8"/>
<text text-anchor="middle" x="821" y="-192.6" font-family="Times,serif" font-size="14.00">AppComponent </text>
</g>
<!-- AppModule&#45;&gt;AppComponent  -->
<g id="edge12" class="edge">
<title>AppModule&#45;&gt;AppComponent </title>
<path fill="none" stroke="black" stroke-dasharray="1,5" d="M821,-149.91C821,-149.91 821,-168.79 821,-168.79"/>
<polygon fill="black" stroke="black" points="817.5,-168.79 821,-178.79 824.5,-168.79 817.5,-168.79"/>
</g>
<!-- AngularMaterialImportsModule -->
<g id="node11" class="node">
<title>AngularMaterialImportsModule</title>
<polygon fill="#8dd3c7" stroke="black" points="1663.39,-84.8 1660.39,-88.8 1639.39,-88.8 1636.39,-84.8 1466.61,-84.8 1466.61,-48.8 1663.39,-48.8 1663.39,-84.8"/>
<text text-anchor="middle" x="1565" y="-62.6" font-family="Times,serif" font-size="14.00">AngularMaterialImportsModule</text>
</g>
<!-- AngularMaterialImportsModule&#45;&gt;AppModule -->
<g id="edge10" class="edge">
<title>AngularMaterialImportsModule&#45;&gt;AppModule</title>
<path fill="none" stroke="black" d="M1565,-85.05C1565,-107.82 1565,-143.8 1565,-143.8 1565,-143.8 872.86,-143.8 872.86,-143.8"/>
<polygon fill="black" stroke="black" points="872.86,-140.3 862.86,-143.8 872.86,-147.3 872.86,-140.3"/>
</g>
<!-- AppRoutingModule -->
<g id="node12" class="node">
<title>AppRoutingModule</title>
<polygon fill="#8dd3c7" stroke="black" points="1448.27,-84.8 1445.27,-88.8 1424.27,-88.8 1421.27,-84.8 1319.73,-84.8 1319.73,-48.8 1448.27,-48.8 1448.27,-84.8"/>
<text text-anchor="middle" x="1384" y="-62.6" font-family="Times,serif" font-size="14.00">AppRoutingModule</text>
</g>
<!-- AppRoutingModule&#45;&gt;AppModule -->
<g id="edge11" class="edge">
<title>AppRoutingModule&#45;&gt;AppModule</title>
<path fill="none" stroke="black" d="M1384,-85.08C1384,-106.12 1384,-137.8 1384,-137.8 1384,-137.8 872.86,-137.8 872.86,-137.8"/>
<polygon fill="black" stroke="black" points="872.86,-134.3 862.86,-137.8 872.86,-141.3 872.86,-134.3"/>
</g>
</g>
</svg>
